<mxfile host="app.diagrams.net" modified="2022-10-17T02:39:34.518Z" agent="5.0 (X11; Linux x86_64) AppleWebKit/537.36 (KHTML, like Gecko) Chrome/97.0.4692.99 Safari/537.36" etag="PN2kPv3LkhdtCwJkAdRi" version="20.4.0" type="github">
  <diagram id="K1miDGBvnJFls9vjIdKm" name="第 1 页">
    <mxGraphModel dx="1580" dy="429" grid="1" gridSize="10" guides="1" tooltips="1" connect="1" arrows="1" fold="1" page="1" pageScale="1" pageWidth="827" pageHeight="1169" math="0" shadow="0">
      <root>
        <mxCell id="0" />
        <mxCell id="1" parent="0" />
        <mxCell id="3-8Zz8_PP1Hgmi6AU1sA-1" value="Activity" style="shape=umlLifeline;perimeter=lifelinePerimeter;whiteSpace=wrap;html=1;container=1;collapsible=0;recursiveResize=0;outlineConnect=0;" parent="1" vertex="1">
          <mxGeometry x="120" y="280" width="100" height="680" as="geometry" />
        </mxCell>
        <mxCell id="3-8Zz8_PP1Hgmi6AU1sA-3" value="" style="html=1;points=[];perimeter=orthogonalPerimeter;" parent="3-8Zz8_PP1Hgmi6AU1sA-1" vertex="1">
          <mxGeometry x="45" y="50" width="10" height="30" as="geometry" />
        </mxCell>
        <mxCell id="3-8Zz8_PP1Hgmi6AU1sA-6" value="" style="html=1;points=[];perimeter=orthogonalPerimeter;" parent="3-8Zz8_PP1Hgmi6AU1sA-1" vertex="1">
          <mxGeometry x="45" y="90" width="10" height="30" as="geometry" />
        </mxCell>
        <mxCell id="3-8Zz8_PP1Hgmi6AU1sA-10" value="startActivity(Intent intent, &lt;br&gt;@Nullable Bundle options)" style="edgeStyle=orthogonalEdgeStyle;html=1;align=left;spacingLeft=2;endArrow=block;rounded=0;exitX=1.006;exitY=0.481;exitDx=0;exitDy=0;exitPerimeter=0;entryX=1.061;entryY=0.481;entryDx=0;entryDy=0;entryPerimeter=0;" parent="3-8Zz8_PP1Hgmi6AU1sA-1" source="3-8Zz8_PP1Hgmi6AU1sA-3" target="3-8Zz8_PP1Hgmi6AU1sA-6" edge="1">
          <mxGeometry x="-0.9006" y="-16" relative="1" as="geometry">
            <mxPoint x="55" y="75" as="sourcePoint" />
            <Array as="points">
              <mxPoint x="85" y="64" />
              <mxPoint x="85" y="104" />
              <mxPoint x="60" y="104" />
            </Array>
            <mxPoint x="60" y="100" as="targetPoint" />
            <mxPoint as="offset" />
          </mxGeometry>
        </mxCell>
        <mxCell id="3-8Zz8_PP1Hgmi6AU1sA-14" value="" style="html=1;points=[];perimeter=orthogonalPerimeter;" parent="3-8Zz8_PP1Hgmi6AU1sA-1" vertex="1">
          <mxGeometry x="45" y="130" width="10" height="100" as="geometry" />
        </mxCell>
        <mxCell id="3-8Zz8_PP1Hgmi6AU1sA-15" value="&lt;pre style=&quot;font-family: &amp;quot;DejaVu Sans Mono&amp;quot;, monospace; font-size: 9pt;&quot;&gt;startActivityForResult&lt;/pre&gt;" style="edgeStyle=orthogonalEdgeStyle;html=1;align=left;spacingLeft=2;endArrow=block;rounded=0;" parent="3-8Zz8_PP1Hgmi6AU1sA-1" edge="1">
          <mxGeometry x="-0.9336" y="-20" relative="1" as="geometry">
            <mxPoint x="56" y="110" as="sourcePoint" />
            <Array as="points">
              <mxPoint x="90" y="110" />
              <mxPoint x="90" y="150" />
            </Array>
            <mxPoint x="56" y="150" as="targetPoint" />
            <mxPoint as="offset" />
          </mxGeometry>
        </mxCell>
        <mxCell id="3-8Zz8_PP1Hgmi6AU1sA-2" value="Activity启动" style="html=1;" parent="1" vertex="1">
          <mxGeometry x="20" y="230" width="80" height="40" as="geometry" />
        </mxCell>
        <mxCell id="3-8Zz8_PP1Hgmi6AU1sA-5" value="&lt;pre style=&quot;font-family: &amp;quot;DejaVu Sans Mono&amp;quot;, monospace; font-size: 9pt;&quot;&gt;startActivity(Intent intent)&lt;/pre&gt;" style="html=1;verticalAlign=bottom;endArrow=block;rounded=0;entryX=-0.071;entryY=0.514;entryDx=0;entryDy=0;entryPerimeter=0;exitX=0.5;exitY=1;exitDx=0;exitDy=0;" parent="1" source="3-8Zz8_PP1Hgmi6AU1sA-2" target="3-8Zz8_PP1Hgmi6AU1sA-3" edge="1">
          <mxGeometry x="-0.2191" y="-40" width="80" relative="1" as="geometry">
            <mxPoint x="30" y="300" as="sourcePoint" />
            <mxPoint x="110" y="300" as="targetPoint" />
            <Array as="points">
              <mxPoint x="60" y="345" />
            </Array>
            <mxPoint as="offset" />
          </mxGeometry>
        </mxCell>
        <mxCell id="3-8Zz8_PP1Hgmi6AU1sA-11" value="&lt;pre style=&quot;background-color: rgb(255, 255, 255); font-family: &amp;quot;DejaVu Sans Mono&amp;quot;, monospace; font-size: 9pt;&quot;&gt;Instrumentation&lt;/pre&gt;" style="shape=umlLifeline;perimeter=lifelinePerimeter;whiteSpace=wrap;html=1;container=1;collapsible=0;recursiveResize=0;outlineConnect=0;" parent="1" vertex="1">
          <mxGeometry x="330" y="280" width="110" height="680" as="geometry" />
        </mxCell>
        <mxCell id="3-8Zz8_PP1Hgmi6AU1sA-16" value="" style="html=1;points=[];perimeter=orthogonalPerimeter;" parent="3-8Zz8_PP1Hgmi6AU1sA-11" vertex="1">
          <mxGeometry x="50" y="160" width="10" height="120" as="geometry" />
        </mxCell>
        <mxCell id="3-8Zz8_PP1Hgmi6AU1sA-28" value="&lt;pre style=&quot;font-family: &amp;quot;DejaVu Sans Mono&amp;quot;, monospace; font-size: 9pt;&quot;&gt;startActivity&lt;/pre&gt;" style="html=1;verticalAlign=bottom;endArrow=block;rounded=0;entryX=0.056;entryY=0.187;entryDx=0;entryDy=0;entryPerimeter=0;" parent="3-8Zz8_PP1Hgmi6AU1sA-11" target="3-8Zz8_PP1Hgmi6AU1sA-27" edge="1">
          <mxGeometry x="0.1412" y="-20" width="80" relative="1" as="geometry">
            <mxPoint x="60" y="280" as="sourcePoint" />
            <mxPoint x="140" y="280" as="targetPoint" />
            <mxPoint as="offset" />
          </mxGeometry>
        </mxCell>
        <mxCell id="3-8Zz8_PP1Hgmi6AU1sA-17" value="&lt;pre style=&quot;font-family: &amp;quot;DejaVu Sans Mono&amp;quot;, monospace; font-size: 9pt;&quot;&gt;execStartActivity&lt;/pre&gt;" style="html=1;verticalAlign=bottom;endArrow=block;rounded=0;exitX=1.214;exitY=0.394;exitDx=0;exitDy=0;exitPerimeter=0;" parent="1" source="3-8Zz8_PP1Hgmi6AU1sA-14" target="3-8Zz8_PP1Hgmi6AU1sA-16" edge="1">
          <mxGeometry x="0.0296" y="-19" width="80" relative="1" as="geometry">
            <mxPoint x="180" y="440" as="sourcePoint" />
            <mxPoint x="260" y="440" as="targetPoint" />
            <mxPoint as="offset" />
          </mxGeometry>
        </mxCell>
        <mxCell id="3-8Zz8_PP1Hgmi6AU1sA-18" value="&lt;pre style=&quot;background-color: rgb(255, 255, 255); font-family: &amp;quot;DejaVu Sans Mono&amp;quot;, monospace; font-size: 9pt;&quot;&gt;ActivityManagerNative&lt;/pre&gt;" style="shape=umlLifeline;perimeter=lifelinePerimeter;whiteSpace=wrap;html=1;container=1;collapsible=0;recursiveResize=0;outlineConnect=0;" parent="1" vertex="1">
          <mxGeometry x="490" y="280" width="160" height="680" as="geometry" />
        </mxCell>
        <mxCell id="3-8Zz8_PP1Hgmi6AU1sA-19" value="" style="html=1;points=[];perimeter=orthogonalPerimeter;" parent="3-8Zz8_PP1Hgmi6AU1sA-18" vertex="1">
          <mxGeometry x="75" y="190" width="10" height="50" as="geometry" />
        </mxCell>
        <mxCell id="3-8Zz8_PP1Hgmi6AU1sA-21" value="&lt;span style=&quot;font-family: &amp;quot;DejaVu Sans Mono&amp;quot;, monospace; font-size: 9pt;&quot;&gt;ActivityManagerProxy&lt;br&gt;实例&lt;/span&gt;" style="html=1;verticalAlign=bottom;endArrow=open;dashed=1;endSize=8;exitX=0;exitY=0.95;rounded=0;entryX=1.008;entryY=0.653;entryDx=0;entryDy=0;entryPerimeter=0;" parent="1" source="3-8Zz8_PP1Hgmi6AU1sA-19" target="3-8Zz8_PP1Hgmi6AU1sA-16" edge="1">
          <mxGeometry x="0.0355" y="22" relative="1" as="geometry">
            <mxPoint x="390" y="478" as="targetPoint" />
            <mxPoint as="offset" />
          </mxGeometry>
        </mxCell>
        <mxCell id="3-8Zz8_PP1Hgmi6AU1sA-20" value="&lt;pre style=&quot;font-family: &amp;quot;DejaVu Sans Mono&amp;quot;, monospace; font-size: 9pt;&quot;&gt;&lt;span style=&quot;font-style:italic;&quot;&gt;getDefault&lt;/span&gt;()代理模式&lt;/pre&gt;" style="html=1;verticalAlign=bottom;endArrow=block;entryX=0.071;entryY=0.203;rounded=0;entryDx=0;entryDy=0;entryPerimeter=0;" parent="1" target="3-8Zz8_PP1Hgmi6AU1sA-19" edge="1">
          <mxGeometry x="-0.0112" y="-20" relative="1" as="geometry">
            <mxPoint x="390" y="480" as="sourcePoint" />
            <mxPoint as="offset" />
          </mxGeometry>
        </mxCell>
        <mxCell id="3-8Zz8_PP1Hgmi6AU1sA-22" value="&lt;span style=&quot;font-family: &amp;quot;DejaVu Sans Mono&amp;quot;, monospace; background-color: rgb(255, 255, 255);&quot;&gt;ActivityManagerProxy&lt;/span&gt;&lt;br style=&quot;font-family: &amp;quot;DejaVu Sans Mono&amp;quot;, monospace; background-color: rgb(255, 255, 255);&quot;&gt;" style="shape=umlLifeline;perimeter=lifelinePerimeter;whiteSpace=wrap;html=1;container=1;collapsible=0;recursiveResize=0;outlineConnect=0;" parent="1" vertex="1">
          <mxGeometry x="670" y="280" width="150" height="680" as="geometry" />
        </mxCell>
        <mxCell id="3-8Zz8_PP1Hgmi6AU1sA-27" value="" style="html=1;points=[];perimeter=orthogonalPerimeter;" parent="3-8Zz8_PP1Hgmi6AU1sA-22" vertex="1">
          <mxGeometry x="70" y="250" width="10" height="160" as="geometry" />
        </mxCell>
        <mxCell id="q_aMq3zezCOZlLsk0ixk-3" value="&lt;pre style=&quot;font-family: &amp;quot;DejaVu Sans Mono&amp;quot;, monospace; font-size: 9pt;&quot;&gt;startActivity&lt;/pre&gt;" style="html=1;verticalAlign=bottom;endArrow=block;rounded=0;" edge="1" parent="3-8Zz8_PP1Hgmi6AU1sA-22" target="q_aMq3zezCOZlLsk0ixk-2">
          <mxGeometry x="-0.0588" y="-20" width="80" relative="1" as="geometry">
            <mxPoint x="80" y="250" as="sourcePoint" />
            <mxPoint x="160" y="250" as="targetPoint" />
            <mxPoint as="offset" />
          </mxGeometry>
        </mxCell>
        <mxCell id="3-8Zz8_PP1Hgmi6AU1sA-24" value="&lt;pre style=&quot;font-family: &amp;quot;DejaVu Sans Mono&amp;quot;, monospace; font-size: 9pt;&quot;&gt;返回ActivityResult&lt;/pre&gt;" style="html=1;verticalAlign=bottom;endArrow=open;dashed=1;endSize=8;rounded=0;entryX=1.04;entryY=0.597;entryDx=0;entryDy=0;entryPerimeter=0;" parent="1" target="3-8Zz8_PP1Hgmi6AU1sA-14" edge="1">
          <mxGeometry x="-0.0229" y="30" relative="1" as="geometry">
            <mxPoint x="380" y="470" as="sourcePoint" />
            <mxPoint x="180" y="470" as="targetPoint" />
            <mxPoint as="offset" />
          </mxGeometry>
        </mxCell>
        <mxCell id="q_aMq3zezCOZlLsk0ixk-1" value="&lt;pre style=&quot;background-color: rgb(255, 255, 255); font-family: &amp;quot;DejaVu Sans Mono&amp;quot;, monospace; font-size: 9pt;&quot;&gt;ActivityManagerService&lt;/pre&gt;" style="shape=umlLifeline;perimeter=lifelinePerimeter;whiteSpace=wrap;html=1;container=1;collapsible=0;recursiveResize=0;outlineConnect=0;" vertex="1" parent="1">
          <mxGeometry x="840" y="280" width="170" height="680" as="geometry" />
        </mxCell>
        <mxCell id="q_aMq3zezCOZlLsk0ixk-2" value="" style="html=1;points=[];perimeter=orthogonalPerimeter;" vertex="1" parent="q_aMq3zezCOZlLsk0ixk-1">
          <mxGeometry x="80" y="240" width="10" height="50" as="geometry" />
        </mxCell>
        <mxCell id="q_aMq3zezCOZlLsk0ixk-4" value="" style="html=1;points=[];perimeter=orthogonalPerimeter;" vertex="1" parent="q_aMq3zezCOZlLsk0ixk-1">
          <mxGeometry x="80" y="295" width="10" height="65" as="geometry" />
        </mxCell>
        <mxCell id="q_aMq3zezCOZlLsk0ixk-5" value="&lt;pre style=&quot;font-family: &amp;quot;DejaVu Sans Mono&amp;quot;, monospace; font-size: 9pt;&quot;&gt;startActivityAsUser&lt;/pre&gt;" style="edgeStyle=orthogonalEdgeStyle;html=1;align=left;spacingLeft=2;endArrow=block;rounded=0;entryX=1;entryY=0;" edge="1" target="q_aMq3zezCOZlLsk0ixk-4" parent="q_aMq3zezCOZlLsk0ixk-1">
          <mxGeometry relative="1" as="geometry">
            <mxPoint x="90" y="250" as="sourcePoint" />
            <Array as="points">
              <mxPoint x="115" y="250" />
            </Array>
          </mxGeometry>
        </mxCell>
        <mxCell id="q_aMq3zezCOZlLsk0ixk-16" value="返回结果" style="html=1;verticalAlign=bottom;endArrow=block;rounded=0;exitX=0.278;exitY=0.998;exitDx=0;exitDy=0;exitPerimeter=0;entryX=0.111;entryY=0.876;entryDx=0;entryDy=0;entryPerimeter=0;" edge="1" parent="q_aMq3zezCOZlLsk0ixk-1" source="q_aMq3zezCOZlLsk0ixk-4" target="q_aMq3zezCOZlLsk0ixk-2">
          <mxGeometry x="0.0355" width="80" relative="1" as="geometry">
            <mxPoint x="-30" y="340" as="sourcePoint" />
            <mxPoint x="50" y="340" as="targetPoint" />
            <Array as="points">
              <mxPoint x="40" y="360" />
              <mxPoint x="40" y="284" />
            </Array>
            <mxPoint as="offset" />
          </mxGeometry>
        </mxCell>
        <mxCell id="q_aMq3zezCOZlLsk0ixk-11" value="返回结果" style="html=1;verticalAlign=bottom;endArrow=open;dashed=1;endSize=8;rounded=0;exitX=0;exitY=0.642;exitDx=0;exitDy=0;exitPerimeter=0;entryX=1;entryY=0.138;entryDx=0;entryDy=0;entryPerimeter=0;" edge="1" parent="1" source="q_aMq3zezCOZlLsk0ixk-2" target="3-8Zz8_PP1Hgmi6AU1sA-27">
          <mxGeometry x="0.0556" y="10" relative="1" as="geometry">
            <mxPoint x="910" y="560" as="sourcePoint" />
            <mxPoint x="750" y="560" as="targetPoint" />
            <mxPoint as="offset" />
          </mxGeometry>
        </mxCell>
        <mxCell id="q_aMq3zezCOZlLsk0ixk-12" value="ActivityStarter" style="shape=umlLifeline;perimeter=lifelinePerimeter;whiteSpace=wrap;html=1;container=1;collapsible=0;recursiveResize=0;outlineConnect=0;" vertex="1" parent="1">
          <mxGeometry x="1060" y="280" width="90" height="680" as="geometry" />
        </mxCell>
        <mxCell id="q_aMq3zezCOZlLsk0ixk-13" value="" style="html=1;points=[];perimeter=orthogonalPerimeter;" vertex="1" parent="q_aMq3zezCOZlLsk0ixk-12">
          <mxGeometry x="40" y="310" width="10" height="50" as="geometry" />
        </mxCell>
        <mxCell id="q_aMq3zezCOZlLsk0ixk-14" value="&lt;pre style=&quot;font-family: &amp;quot;DejaVu Sans Mono&amp;quot;, monospace; font-size: 9pt;&quot;&gt;startActivityMayWait&lt;/pre&gt;" style="html=1;verticalAlign=bottom;endArrow=block;rounded=0;exitX=1.111;exitY=0.383;exitDx=0;exitDy=0;exitPerimeter=0;" edge="1" target="q_aMq3zezCOZlLsk0ixk-13" parent="1" source="q_aMq3zezCOZlLsk0ixk-4">
          <mxGeometry x="0.0496" y="-20" relative="1" as="geometry">
            <mxPoint x="1030" y="570" as="sourcePoint" />
            <mxPoint as="offset" />
          </mxGeometry>
        </mxCell>
        <mxCell id="q_aMq3zezCOZlLsk0ixk-15" value="返回结果" style="html=1;verticalAlign=bottom;endArrow=open;dashed=1;endSize=8;exitX=0;exitY=0.95;rounded=0;entryX=0.96;entryY=0.986;entryDx=0;entryDy=0;entryPerimeter=0;" edge="1" source="q_aMq3zezCOZlLsk0ixk-13" parent="1" target="q_aMq3zezCOZlLsk0ixk-4">
          <mxGeometry x="0.0739" y="12" relative="1" as="geometry">
            <mxPoint x="1030" y="620" as="targetPoint" />
            <mxPoint as="offset" />
          </mxGeometry>
        </mxCell>
      </root>
    </mxGraphModel>
  </diagram>
</mxfile>
